<svg width="2207.7000000000003" height="899.8000000000001" xmlns="http://www.w3.org/2000/svg" xmlns:xlink="http://www.w3.org/1999/xlink"><line x1="718.875" y1="7.5" x2="130.75" y2="32.0" style="stroke:black; stroke-width:1px;" />
<line x1="130.75" y1="39.5" x2="109.0" y2="64.0" style="stroke:black; stroke-width:1px;" />
<line x1="109.0" y1="71.5" x2="10.5" y2="96.0" style="stroke:black; stroke-width:1px;" />
<line x1="10.5" y1="103.5" x2="10.5" y2="128.0" style="stroke:black; stroke-width:1px;" />
<line x1="109.0" y1="71.5" x2="31.5" y2="96.0" style="stroke:black; stroke-width:1px;" />
<line x1="109.0" y1="71.5" x2="94.5" y2="96.0" style="stroke:black; stroke-width:1px;" />
<line x1="94.5" y1="103.5" x2="94.5" y2="128.0" style="stroke:black; stroke-width:1px;" />
<line x1="109.0" y1="71.5" x2="159.0" y2="96.0" style="stroke:black; stroke-width:1px;" />
<line x1="109.0" y1="71.5" x2="207.5" y2="96.0" style="stroke:black; stroke-width:1px;" />
<line x1="207.5" y1="103.5" x2="207.5" y2="128.0" style="stroke:black; stroke-width:1px;" />
<line x1="207.5" y1="135.5" x2="207.5" y2="160.0" style="stroke:black; stroke-width:1px;" />
<line x1="130.75" y1="39.5" x2="152.5" y2="64.0" style="stroke:black; stroke-width:1px;" />
<line x1="718.875" y1="7.5" x2="381.75" y2="32.0" style="stroke:black; stroke-width:1px;" />
<line x1="381.75" y1="39.5" x2="360.0" y2="64.0" style="stroke:black; stroke-width:1px;" />
<line x1="360.0" y1="71.5" x2="261.5" y2="96.0" style="stroke:black; stroke-width:1px;" />
<line x1="261.5" y1="103.5" x2="261.5" y2="128.0" style="stroke:black; stroke-width:1px;" />
<line x1="360.0" y1="71.5" x2="282.5" y2="96.0" style="stroke:black; stroke-width:1px;" />
<line x1="360.0" y1="71.5" x2="345.5" y2="96.0" style="stroke:black; stroke-width:1px;" />
<line x1="345.5" y1="103.5" x2="345.5" y2="128.0" style="stroke:black; stroke-width:1px;" />
<line x1="360.0" y1="71.5" x2="410.0" y2="96.0" style="stroke:black; stroke-width:1px;" />
<line x1="360.0" y1="71.5" x2="458.5" y2="96.0" style="stroke:black; stroke-width:1px;" />
<line x1="458.5" y1="103.5" x2="458.5" y2="128.0" style="stroke:black; stroke-width:1px;" />
<line x1="458.5" y1="135.5" x2="450.0" y2="160.0" style="stroke:black; stroke-width:1px;" />
<line x1="458.5" y1="135.5" x2="467.0" y2="160.0" style="stroke:black; stroke-width:1px;" />
<line x1="381.75" y1="39.5" x2="403.5" y2="64.0" style="stroke:black; stroke-width:1px;" />
<line x1="718.875" y1="7.5" x2="785.75" y2="32.0" style="stroke:black; stroke-width:1px;" />
<line x1="785.75" y1="39.5" x2="785.75" y2="64.0" style="stroke:black; stroke-width:1px;" />
<line x1="785.75" y1="71.5" x2="538.5" y2="96.0" style="stroke:black; stroke-width:1px;" />
<line x1="785.75" y1="71.5" x2="563.5" y2="96.0" style="stroke:black; stroke-width:1px;" />
<line x1="785.75" y1="71.5" x2="608.5" y2="96.0" style="stroke:black; stroke-width:1px;" />
<line x1="608.5" y1="103.5" x2="531.5" y2="128.0" style="stroke:black; stroke-width:1px;" />
<line x1="531.5" y1="135.5" x2="489.5" y2="160.0" style="stroke:black; stroke-width:1px;" />
<line x1="489.5" y1="167.5" x2="489.5" y2="192.0" style="stroke:black; stroke-width:1px;" />
<line x1="531.5" y1="135.5" x2="510.5" y2="160.0" style="stroke:black; stroke-width:1px;" />
<line x1="531.5" y1="135.5" x2="573.5" y2="160.0" style="stroke:black; stroke-width:1px;" />
<line x1="573.5" y1="167.5" x2="573.5" y2="192.0" style="stroke:black; stroke-width:1px;" />
<line x1="608.5" y1="103.5" x2="608.5" y2="128.0" style="stroke:black; stroke-width:1px;" />
<line x1="608.5" y1="103.5" x2="685.5" y2="128.0" style="stroke:black; stroke-width:1px;" />
<line x1="685.5" y1="135.5" x2="643.5" y2="160.0" style="stroke:black; stroke-width:1px;" />
<line x1="643.5" y1="167.5" x2="643.5" y2="192.0" style="stroke:black; stroke-width:1px;" />
<line x1="685.5" y1="135.5" x2="664.5" y2="160.0" style="stroke:black; stroke-width:1px;" />
<line x1="685.5" y1="135.5" x2="727.5" y2="160.0" style="stroke:black; stroke-width:1px;" />
<line x1="727.5" y1="167.5" x2="727.5" y2="192.0" style="stroke:black; stroke-width:1px;" />
<line x1="785.75" y1="71.5" x2="670.3333333333334" y2="96.0" style="stroke:black; stroke-width:1px;" />
<line x1="785.75" y1="71.5" x2="704.6666666666667" y2="96.0" style="stroke:black; stroke-width:1px;" />
<line x1="785.75" y1="71.5" x2="745.5" y2="96.0" style="stroke:black; stroke-width:1px;" />
<line x1="745.5" y1="103.5" x2="728.5" y2="128.0" style="stroke:black; stroke-width:1px;" />
<line x1="745.5" y1="103.5" x2="745.5" y2="128.0" style="stroke:black; stroke-width:1px;" />
<line x1="745.5" y1="103.5" x2="762.5" y2="128.0" style="stroke:black; stroke-width:1px;" />
<line x1="785.75" y1="71.5" x2="770.75" y2="96.0" style="stroke:black; stroke-width:1px;" />
<line x1="785.75" y1="71.5" x2="827.0" y2="96.0" style="stroke:black; stroke-width:1px;" />
<line x1="827.0" y1="103.5" x2="827.0" y2="128.0" style="stroke:black; stroke-width:1px;" />
<line x1="827.0" y1="135.5" x2="827.0" y2="160.0" style="stroke:black; stroke-width:1px;" />
<line x1="785.75" y1="71.5" x2="884.0" y2="96.0" style="stroke:black; stroke-width:1px;" />
<line x1="785.75" y1="71.5" x2="911.5" y2="96.0" style="stroke:black; stroke-width:1px;" />
<line x1="785.75" y1="71.5" x2="971.5" y2="96.0" style="stroke:black; stroke-width:1px;" />
<line x1="971.5" y1="103.5" x2="923.0" y2="128.0" style="stroke:black; stroke-width:1px;" />
<line x1="923.0" y1="135.5" x2="923.0" y2="160.0" style="stroke:black; stroke-width:1px;" />
<line x1="923.0" y1="167.5" x2="923.0" y2="192.0" style="stroke:black; stroke-width:1px;" />
<line x1="971.5" y1="103.5" x2="971.5" y2="128.0" style="stroke:black; stroke-width:1px;" />
<line x1="971.5" y1="103.5" x2="1020.0" y2="128.0" style="stroke:black; stroke-width:1px;" />
<line x1="1020.0" y1="135.5" x2="1020.0" y2="160.0" style="stroke:black; stroke-width:1px;" />
<line x1="1020.0" y1="167.5" x2="1020.0" y2="192.0" style="stroke:black; stroke-width:1px;" />
<line x1="785.75" y1="71.5" x2="1018.5" y2="96.0" style="stroke:black; stroke-width:1px;" />
<line x1="785.75" y1="71.5" x2="1033.0" y2="96.0" style="stroke:black; stroke-width:1px;" />
<line x1="718.875" y1="7.5" x2="1252.0" y2="32.0" style="stroke:black; stroke-width:1px;" />
<line x1="1252.0" y1="39.5" x2="997.5" y2="64.0" style="stroke:black; stroke-width:1px;" />
<line x1="1252.0" y1="39.5" x2="1021.0" y2="64.0" style="stroke:black; stroke-width:1px;" />
<line x1="1252.0" y1="39.5" x2="1068.5" y2="64.0" style="stroke:black; stroke-width:1px;" />
<line x1="1068.5" y1="71.5" x2="1068.5" y2="96.0" style="stroke:black; stroke-width:1px;" />
<line x1="1068.5" y1="103.5" x2="1068.5" y2="128.0" style="stroke:black; stroke-width:1px;" />
<line x1="1252.0" y1="39.5" x2="1115.5" y2="64.0" style="stroke:black; stroke-width:1px;" />
<line x1="1252.0" y1="39.5" x2="1162.5" y2="64.0" style="stroke:black; stroke-width:1px;" />
<line x1="1162.5" y1="71.5" x2="1162.5" y2="96.0" style="stroke:black; stroke-width:1px;" />
<line x1="1252.0" y1="39.5" x2="1209.5" y2="64.0" style="stroke:black; stroke-width:1px;" />
<line x1="1252.0" y1="39.5" x2="1256.5" y2="64.0" style="stroke:black; stroke-width:1px;" />
<line x1="1256.5" y1="71.5" x2="1256.5" y2="96.0" style="stroke:black; stroke-width:1px;" />
<line x1="1256.5" y1="103.5" x2="1256.5" y2="128.0" style="stroke:black; stroke-width:1px;" />
<line x1="1252.0" y1="39.5" x2="1303.5" y2="64.0" style="stroke:black; stroke-width:1px;" />
<line x1="1252.0" y1="39.5" x2="1350.5" y2="64.0" style="stroke:black; stroke-width:1px;" />
<line x1="1350.5" y1="71.5" x2="1350.5" y2="96.0" style="stroke:black; stroke-width:1px;" />
<line x1="1252.0" y1="39.5" x2="1397.5" y2="64.0" style="stroke:black; stroke-width:1px;" />
<line x1="1252.0" y1="39.5" x2="1444.5" y2="64.0" style="stroke:black; stroke-width:1px;" />
<line x1="1444.5" y1="71.5" x2="1444.5" y2="96.0" style="stroke:black; stroke-width:1px;" />
<line x1="1444.5" y1="103.5" x2="1339.25" y2="128.0" style="stroke:black; stroke-width:1px;" />
<line x1="1339.25" y1="135.5" x2="1322.25" y2="160.0" style="stroke:black; stroke-width:1px;" />
<line x1="1339.25" y1="135.5" x2="1339.25" y2="160.0" style="stroke:black; stroke-width:1px;" />
<line x1="1339.25" y1="135.5" x2="1356.25" y2="160.0" style="stroke:black; stroke-width:1px;" />
<line x1="1444.5" y1="103.5" x2="1360.75" y2="128.0" style="stroke:black; stroke-width:1px;" />
<line x1="1444.5" y1="103.5" x2="1408.25" y2="128.0" style="stroke:black; stroke-width:1px;" />
<line x1="1408.25" y1="135.5" x2="1408.25" y2="160.0" style="stroke:black; stroke-width:1px;" />
<line x1="1408.25" y1="167.5" x2="1408.25" y2="192.0" style="stroke:black; stroke-width:1px;" />
<line x1="1444.5" y1="103.5" x2="1455.25" y2="128.0" style="stroke:black; stroke-width:1px;" />
<line x1="1444.5" y1="103.5" x2="1502.25" y2="128.0" style="stroke:black; stroke-width:1px;" />
<line x1="1502.25" y1="135.5" x2="1502.25" y2="160.0" style="stroke:black; stroke-width:1px;" />
<line x1="1502.25" y1="167.5" x2="1502.25" y2="192.0" style="stroke:black; stroke-width:1px;" />
<line x1="1444.5" y1="103.5" x2="1549.75" y2="128.0" style="stroke:black; stroke-width:1px;" />
<line x1="1252.0" y1="39.5" x2="1492.0" y2="64.0" style="stroke:black; stroke-width:1px;" />
<line x1="1252.0" y1="39.5" x2="1506.5" y2="64.0" style="stroke:black; stroke-width:1px;" />
<line x1="718.875" y1="7.5" x2="1307.0" y2="32.0" style="stroke:black; stroke-width:1px;" />
<rect x="1112.0" y="64.0" width="7.0" height="15.0" style="fill:orange; stroke:rgb(0,0,0);" rx="1"/>
<text x="1114" y="73" style="font-family:sans-serif;font-size:10px;">
,
</text>
<rect x="666.3333333333334" y="96.0" width="8.0" height="15.0" style="fill:orange; stroke:rgb(0,0,0);" rx="1"/>
<text x="668" y="105" style="font-family:sans-serif;font-size:10px;">
)
</text>
<rect x="525.0" y="96.0" width="27.0" height="15.0" style="fill:orange; stroke:rgb(0,0,0);" rx="1"/>
<text x="527" y="105" style="font-family:sans-serif;font-size:10px;">
pass
</text>
<rect x="786.0" y="96.0" width="82.0" height="15.0" style="fill:orange; stroke:rgb(0,0,0);" rx="1"/>
<text x="788" y="105" style="font-family:sans-serif;font-size:10px;">
all_data_types:1
</text>
<rect x="1300.0" y="64.0" width="7.0" height="15.0" style="fill:orange; stroke:rgb(0,0,0);" rx="1"/>
<text x="1302" y="73" style="font-family:sans-serif;font-size:10px;">
,
</text>
<rect x="1503.0" y="64.0" width="7.0" height="15.0" style="fill:orange; stroke:rgb(0,0,0);" rx="1"/>
<text x="1505" y="73" style="font-family:sans-serif;font-size:10px;">
;
</text>
<rect x="423.0" y="96.0" width="71.0" height="15.0" style="fill:orange; stroke:rgb(0,0,0);" rx="1"/>
<text x="425" y="105" style="font-family:sans-serif;font-size:10px;">
expression:34
</text>
<rect x="1328.25" y="128.0" width="22.0" height="15.0" style="fill:orange; stroke:rgb(0,0,0);" rx="1"/>
<text x="1330" y="137" style="font-family:sans-serif;font-size:10px;">
id:1
</text>
<rect x="1206.0" y="64.0" width="7.0" height="15.0" style="fill:orange; stroke:rgb(0,0,0);" rx="1"/>
<text x="1208" y="73" style="font-family:sans-serif;font-size:10px;">
,
</text>
<rect x="638.5" y="192.0" width="10.0" height="15.0" style="fill:orange; stroke:rgb(0,0,0);" rx="1"/>
<text x="640" y="201" style="font-family:sans-serif;font-size:10px;">
b
</text>
<rect x="1015.0" y="96.0" width="7.0" height="15.0" style="fill:orange; stroke:rgb(0,0,0);" rx="1"/>
<text x="1017" y="105" style="font-family:sans-serif;font-size:10px;">
;
</text>
<rect x="400.0" y="64.0" width="7.0" height="15.0" style="fill:orange; stroke:rgb(0,0,0);" rx="1"/>
<text x="402" y="73" style="font-family:sans-serif;font-size:10px;">
;
</text>
<rect x="1397.25" y="160.0" width="22.0" height="15.0" style="fill:orange; stroke:rgb(0,0,0);" rx="1"/>
<text x="1399" y="169" style="font-family:sans-serif;font-size:10px;">
id:1
</text>
<rect x="1315.0" y="64.0" width="71.0" height="15.0" style="fill:orange; stroke:rgb(0,0,0);" rx="1"/>
<text x="1317" y="73" style="font-family:sans-serif;font-size:10px;">
expression:37
</text>
<rect x="250.5" y="96.0" width="22.0" height="15.0" style="fill:orange; stroke:rgb(0,0,0);" rx="1"/>
<text x="252" y="105" style="font-family:sans-serif;font-size:10px;">
id:1
</text>
<rect x="1403.25" y="192.0" width="10.0" height="15.0" style="fill:orange; stroke:rgb(0,0,0);" rx="1"/>
<text x="1405" y="201" style="font-family:sans-serif;font-size:10px;">
a
</text>
<rect x="404.5" y="96.0" width="11.0" height="15.0" style="fill:orange; stroke:rgb(0,0,0);" rx="1"/>
<text x="406" y="105" style="font-family:sans-serif;font-size:10px;">
=
</text>
<rect x="675.5" y="160.0" width="104.0" height="15.0" style="fill:orange; stroke:rgb(0,0,0);" rx="1"/>
<text x="677" y="169" style="font-family:sans-serif;font-size:10px;">
variable_data_type:1
</text>
<rect x="1317.25" y="160.0" width="10.0" height="15.0" style="fill:orange; stroke:rgb(0,0,0);" rx="1"/>
<text x="1319" y="169" style="font-family:sans-serif;font-size:10px;">
a
</text>
<rect x="-0.5" y="96.0" width="22.0" height="15.0" style="fill:orange; stroke:rgb(0,0,0);" rx="1"/>
<text x="2" y="105" style="font-family:sans-serif;font-size:10px;">
id:1
</text>
<rect x="75.5" y="64.0" width="67.0" height="15.0" style="fill:orange; stroke:rgb(0,0,0);" rx="1"/>
<text x="77" y="73" style="font-family:sans-serif;font-size:10px;">
declaration:1
</text>
<rect x="716.5" y="192.0" width="22.0" height="15.0" style="fill:orange; stroke:rgb(0,0,0);" rx="1"/>
<text x="718" y="201" style="font-family:sans-serif;font-size:10px;">
dec
</text>
<rect x="445.0" y="160.0" width="10.0" height="15.0" style="fill:orange; stroke:rgb(0,0,0);" rx="1"/>
<text x="447" y="169" style="font-family:sans-serif;font-size:10px;">
1
</text>
<rect x="605.0" y="128.0" width="7.0" height="15.0" style="fill:orange; stroke:rgb(0,0,0);" rx="1"/>
<text x="607" y="137" style="font-family:sans-serif;font-size:10px;">
,
</text>
<rect x="507.0" y="160.0" width="7.0" height="15.0" style="fill:orange; stroke:rgb(0,0,0);" rx="1"/>
<text x="509" y="169" style="font-family:sans-serif;font-size:10px;">
:
</text>
<rect x="887.5" y="128.0" width="71.0" height="15.0" style="fill:orange; stroke:rgb(0,0,0);" rx="1"/>
<text x="889" y="137" style="font-family:sans-serif;font-size:10px;">
expression:33
</text>
<rect x="256.5" y="128.0" width="10.0" height="15.0" style="fill:orange; stroke:rgb(0,0,0);" rx="1"/>
<text x="258" y="137" style="font-family:sans-serif;font-size:10px;">
b
</text>
<rect x="293.5" y="96.0" width="104.0" height="15.0" style="fill:orange; stroke:rgb(0,0,0);" rx="1"/>
<text x="295" y="105" style="font-family:sans-serif;font-size:10px;">
variable_data_type:1
</text>
<rect x="661.0" y="160.0" width="7.0" height="15.0" style="fill:orange; stroke:rgb(0,0,0);" rx="1"/>
<text x="663" y="169" style="font-family:sans-serif;font-size:10px;">
:
</text>
<rect x="1221.0" y="64.0" width="71.0" height="15.0" style="fill:orange; stroke:rgb(0,0,0);" rx="1"/>
<text x="1223" y="73" style="font-family:sans-serif;font-size:10px;">
expression:33
</text>
<rect x="559.5" y="96.0" width="8.0" height="15.0" style="fill:orange; stroke:rgb(0,0,0);" rx="1"/>
<text x="561" y="105" style="font-family:sans-serif;font-size:10px;">
(
</text>
<rect x="1057.5" y="96.0" width="22.0" height="15.0" style="fill:orange; stroke:rgb(0,0,0);" rx="1"/>
<text x="1059" y="105" style="font-family:sans-serif;font-size:10px;">
id:1
</text>
<rect x="1251.5" y="128.0" width="10.0" height="15.0" style="fill:orange; stroke:rgb(0,0,0);" rx="1"/>
<text x="1253" y="137" style="font-family:sans-serif;font-size:10px;">
b
</text>
<rect x="82.0" y="128.0" width="25.0" height="15.0" style="fill:orange; stroke:rgb(0,0,0);" rx="1"/>
<text x="84" y="137" style="font-family:sans-serif;font-size:10px;">
num
</text>
<rect x="912.0" y="160.0" width="22.0" height="15.0" style="fill:orange; stroke:rgb(0,0,0);" rx="1"/>
<text x="914" y="169" style="font-family:sans-serif;font-size:10px;">
id:1
</text>
<rect x="279.0" y="96.0" width="7.0" height="15.0" style="fill:orange; stroke:rgb(0,0,0);" rx="1"/>
<text x="281" y="105" style="font-family:sans-serif;font-size:10px;">
:
</text>
<rect x="880.0" y="96.0" width="8.0" height="15.0" style="fill:orange; stroke:rgb(0,0,0);" rx="1"/>
<text x="882" y="105" style="font-family:sans-serif;font-size:10px;">
{
</text>
<rect x="698.1666666666667" y="96.0" width="13.0" height="15.0" style="fill:orange; stroke:rgb(0,0,0);" rx="1"/>
<text x="700" y="105" style="font-family:sans-serif;font-size:10px;">
to
</text>
<rect x="1394.0" y="64.0" width="7.0" height="15.0" style="fill:orange; stroke:rgb(0,0,0);" rx="1"/>
<text x="1396" y="73" style="font-family:sans-serif;font-size:10px;">
,
</text>
<rect x="149.0" y="64.0" width="7.0" height="15.0" style="fill:orange; stroke:rgb(0,0,0);" rx="1"/>
<text x="151" y="73" style="font-family:sans-serif;font-size:10px;">
;
</text>
<rect x="1488.0" y="64.0" width="8.0" height="15.0" style="fill:orange; stroke:rgb(0,0,0);" rx="1"/>
<text x="1490" y="73" style="font-family:sans-serif;font-size:10px;">
)
</text>
<rect x="985.0" y="64.0" width="25.0" height="15.0" style="fill:orange; stroke:rgb(0,0,0);" rx="1"/>
<text x="987" y="73" style="font-family:sans-serif;font-size:10px;">
print
</text>
<rect x="723.5" y="128.0" width="10.0" height="15.0" style="fill:orange; stroke:rgb(0,0,0);" rx="1"/>
<text x="725" y="137" style="font-family:sans-serif;font-size:10px;">
a
</text>
<rect x="632.5" y="160.0" width="22.0" height="15.0" style="fill:orange; stroke:rgb(0,0,0);" rx="1"/>
<text x="634" y="169" style="font-family:sans-serif;font-size:10px;">
id:1
</text>
<rect x="767.25" y="96.0" width="7.0" height="15.0" style="fill:orange; stroke:rgb(0,0,0);" rx="1"/>
<text x="769" y="105" style="font-family:sans-serif;font-size:10px;">
:
</text>
<rect x="484.5" y="192.0" width="10.0" height="15.0" style="fill:orange; stroke:rgb(0,0,0);" rx="1"/>
<text x="486" y="201" style="font-family:sans-serif;font-size:10px;">
a
</text>
<rect x="1017.0" y="64.0" width="8.0" height="15.0" style="fill:orange; stroke:rgb(0,0,0);" rx="1"/>
<text x="1019" y="73" style="font-family:sans-serif;font-size:10px;">
(
</text>
<rect x="753.25" y="32.0" width="65.0" height="15.0" style="fill:orange; stroke:rgb(0,0,0);" rx="1"/>
<text x="755" y="41" style="font-family:sans-serif;font-size:10px;">
statement:14
</text>
<rect x="1497.25" y="192.0" width="10.0" height="15.0" style="fill:orange; stroke:rgb(0,0,0);" rx="1"/>
<text x="1499" y="201" style="font-family:sans-serif;font-size:10px;">
b
</text>
<rect x="1491.25" y="160.0" width="22.0" height="15.0" style="fill:orange; stroke:rgb(0,0,0);" rx="1"/>
<text x="1493" y="169" style="font-family:sans-serif;font-size:10px;">
id:1
</text>
<rect x="98.25" y="32.0" width="65.0" height="15.0" style="fill:orange; stroke:rgb(0,0,0);" rx="1"/>
<text x="100" y="41" style="font-family:sans-serif;font-size:10px;">
statement:11
</text>
<rect x="936.0" y="96.0" width="71.0" height="15.0" style="fill:orange; stroke:rgb(0,0,0);" rx="1"/>
<text x="938" y="105" style="font-family:sans-serif;font-size:10px;">
expression:11
</text>
<rect x="1409.5" y="96.0" width="70.0" height="15.0" style="fill:orange; stroke:rgb(0,0,0);" rx="1"/>
<text x="1411" y="105" style="font-family:sans-serif;font-size:10px;">
functionCall:1
</text>
<rect x="1334.25" y="160.0" width="10.0" height="15.0" style="fill:orange; stroke:rgb(0,0,0);" rx="1"/>
<text x="1336" y="169" style="font-family:sans-serif;font-size:10px;">
d
</text>
<rect x="984.5" y="128.0" width="71.0" height="15.0" style="fill:orange; stroke:rgb(0,0,0);" rx="1"/>
<text x="986" y="137" style="font-family:sans-serif;font-size:10px;">
expression:33
</text>
<rect x="1356.75" y="128.0" width="8.0" height="15.0" style="fill:orange; stroke:rgb(0,0,0);" rx="1"/>
<text x="1358" y="137" style="font-family:sans-serif;font-size:10px;">
(
</text>
<rect x="1545.75" y="128.0" width="8.0" height="15.0" style="fill:orange; stroke:rgb(0,0,0);" rx="1"/>
<text x="1547" y="137" style="font-family:sans-serif;font-size:10px;">
)
</text>
<rect x="5.5" y="128.0" width="10.0" height="15.0" style="fill:orange; stroke:rgb(0,0,0);" rx="1"/>
<text x="7" y="137" style="font-family:sans-serif;font-size:10px;">
a
</text>
<rect x="1222.5" y="32.0" width="59.0" height="15.0" style="fill:orange; stroke:rgb(0,0,0);" rx="1"/>
<text x="1224" y="41" style="font-family:sans-serif;font-size:10px;">
statement:5
</text>
<rect x="574.5" y="96.0" width="68.0" height="15.0" style="fill:orange; stroke:rgb(0,0,0);" rx="1"/>
<text x="576" y="105" style="font-family:sans-serif;font-size:10px;">
parameters:1
</text>
<rect x="1245.5" y="96.0" width="22.0" height="15.0" style="fill:orange; stroke:rgb(0,0,0);" rx="1"/>
<text x="1247" y="105" style="font-family:sans-serif;font-size:10px;">
id:1
</text>
<rect x="918.0" y="192.0" width="10.0" height="15.0" style="fill:orange; stroke:rgb(0,0,0);" rx="1"/>
<text x="920" y="201" style="font-family:sans-serif;font-size:10px;">
a
</text>
<rect x="1337.0" y="96.0" width="27.0" height="15.0" style="fill:orange; stroke:rgb(0,0,0);" rx="1"/>
<text x="1339" y="105" style="font-family:sans-serif;font-size:10px;">
"路=路"
</text>
<rect x="1009.0" y="160.0" width="22.0" height="15.0" style="fill:orange; stroke:rgb(0,0,0);" rx="1"/>
<text x="1011" y="169" style="font-family:sans-serif;font-size:10px;">
id:1
</text>
<rect x="1029.0" y="96.0" width="8.0" height="15.0" style="fill:orange; stroke:rgb(0,0,0);" rx="1"/>
<text x="1031" y="105" style="font-family:sans-serif;font-size:10px;">
}
</text>
<rect x="900.0" y="96.0" width="23.0" height="15.0" style="fill:orange; stroke:rgb(0,0,0);" rx="1"/>
<text x="902" y="105" style="font-family:sans-serif;font-size:10px;">
give
</text>
<rect x="757.5" y="128.0" width="10.0" height="15.0" style="fill:orange; stroke:rgb(0,0,0);" rx="1"/>
<text x="759" y="137" style="font-family:sans-serif;font-size:10px;">
d
</text>
<rect x="153.5" y="96.0" width="11.0" height="15.0" style="fill:orange; stroke:rgb(0,0,0);" rx="1"/>
<text x="155" y="105" style="font-family:sans-serif;font-size:10px;">
=
</text>
<rect x="28.0" y="96.0" width="7.0" height="15.0" style="fill:orange; stroke:rgb(0,0,0);" rx="1"/>
<text x="30" y="105" style="font-family:sans-serif;font-size:10px;">
:
</text>
<rect x="561.0" y="192.0" width="25.0" height="15.0" style="fill:orange; stroke:rgb(0,0,0);" rx="1"/>
<text x="563" y="201" style="font-family:sans-serif;font-size:10px;">
num
</text>
<rect x="326.5" y="64.0" width="67.0" height="15.0" style="fill:orange; stroke:rgb(0,0,0);" rx="1"/>
<text x="328" y="73" style="font-family:sans-serif;font-size:10px;">
declaration:1
</text>
<rect x="1466.75" y="128.0" width="71.0" height="15.0" style="fill:orange; stroke:rgb(0,0,0);" rx="1"/>
<text x="1468" y="137" style="font-family:sans-serif;font-size:10px;">
expression:33
</text>
<rect x="691.875" y="0.0" width="54.0" height="15.0" style="fill:orange; stroke:rgb(0,0,0);" rx="1"/>
<text x="693" y="9" style="font-family:sans-serif;font-size:10px;">
program:1
</text>
<rect x="433.5" y="128.0" width="50.0" height="15.0" style="fill:orange; stroke:rgb(0,0,0);" rx="1"/>
<text x="435" y="137" style="font-family:sans-serif;font-size:10px;">
number:2
</text>
<rect x="42.5" y="96.0" width="104.0" height="15.0" style="fill:orange; stroke:rgb(0,0,0);" rx="1"/>
<text x="44" y="105" style="font-family:sans-serif;font-size:10px;">
variable_data_type:1
</text>
<rect x="1127.0" y="64.0" width="71.0" height="15.0" style="fill:orange; stroke:rgb(0,0,0);" rx="1"/>
<text x="1129" y="73" style="font-family:sans-serif;font-size:10px;">
expression:37
</text>
<rect x="1149.0" y="96.0" width="27.0" height="15.0" style="fill:orange; stroke:rgb(0,0,0);" rx="1"/>
<text x="1151" y="105" style="font-family:sans-serif;font-size:10px;">
"路+路"
</text>
<rect x="172.0" y="96.0" width="71.0" height="15.0" style="fill:orange; stroke:rgb(0,0,0);" rx="1"/>
<text x="174" y="105" style="font-family:sans-serif;font-size:10px;">
expression:34
</text>
<rect x="202.5" y="160.0" width="10.0" height="15.0" style="fill:orange; stroke:rgb(0,0,0);" rx="1"/>
<text x="204" y="169" style="font-family:sans-serif;font-size:10px;">
5
</text>
<rect x="1287.5" y="32.0" width="39.0" height="15.0" style="fill:orange; stroke:rgb(0,0,0);" rx="1"/>
<text x="1289" y="41" style="font-family:sans-serif;font-size:10px;">
&lt;EOF&gt;
</text>
<rect x="1063.5" y="128.0" width="10.0" height="15.0" style="fill:orange; stroke:rgb(0,0,0);" rx="1"/>
<text x="1065" y="137" style="font-family:sans-serif;font-size:10px;">
a
</text>
<rect x="349.25" y="32.0" width="65.0" height="15.0" style="fill:orange; stroke:rgb(0,0,0);" rx="1"/>
<text x="351" y="41" style="font-family:sans-serif;font-size:10px;">
statement:11
</text>
<rect x="735.75" y="64.0" width="100.0" height="15.0" style="fill:orange; stroke:rgb(0,0,0);" rx="1"/>
<text x="737" y="73" style="font-family:sans-serif;font-size:10px;">
functionWithBody:1
</text>
<rect x="334.5" y="128.0" width="22.0" height="15.0" style="fill:orange; stroke:rgb(0,0,0);" rx="1"/>
<text x="336" y="137" style="font-family:sans-serif;font-size:10px;">
dec
</text>
<rect x="740.5" y="128.0" width="10.0" height="15.0" style="fill:orange; stroke:rgb(0,0,0);" rx="1"/>
<text x="742" y="137" style="font-family:sans-serif;font-size:10px;">
d
</text>
<rect x="478.5" y="160.0" width="22.0" height="15.0" style="fill:orange; stroke:rgb(0,0,0);" rx="1"/>
<text x="480" y="169" style="font-family:sans-serif;font-size:10px;">
id:1
</text>
<rect x="462.0" y="160.0" width="10.0" height="15.0" style="fill:orange; stroke:rgb(0,0,0);" rx="1"/>
<text x="464" y="169" style="font-family:sans-serif;font-size:10px;">
0
</text>
<rect x="816.0" y="160.0" width="22.0" height="15.0" style="fill:orange; stroke:rgb(0,0,0);" rx="1"/>
<text x="818" y="169" style="font-family:sans-serif;font-size:10px;">
dec
</text>
<rect x="521.5" y="160.0" width="104.0" height="15.0" style="fill:orange; stroke:rgb(0,0,0);" rx="1"/>
<text x="523" y="169" style="font-family:sans-serif;font-size:10px;">
variable_data_type:1
</text>
<rect x="654.0" y="128.0" width="63.0" height="15.0" style="fill:orange; stroke:rgb(0,0,0);" rx="1"/>
<text x="656" y="137" style="font-family:sans-serif;font-size:10px;">
parameter:1
</text>
<rect x="1033.0" y="64.0" width="71.0" height="15.0" style="fill:orange; stroke:rgb(0,0,0);" rx="1"/>
<text x="1035" y="73" style="font-family:sans-serif;font-size:10px;">
expression:33
</text>
<rect x="1409.0" y="64.0" width="71.0" height="15.0" style="fill:orange; stroke:rgb(0,0,0);" rx="1"/>
<text x="1411" y="73" style="font-family:sans-serif;font-size:10px;">
expression:32
</text>
<rect x="734.5" y="96.0" width="22.0" height="15.0" style="fill:orange; stroke:rgb(0,0,0);" rx="1"/>
<text x="736" y="105" style="font-family:sans-serif;font-size:10px;">
id:1
</text>
<rect x="1372.75" y="128.0" width="71.0" height="15.0" style="fill:orange; stroke:rgb(0,0,0);" rx="1"/>
<text x="1374" y="137" style="font-family:sans-serif;font-size:10px;">
expression:33
</text>
<rect x="500.0" y="128.0" width="63.0" height="15.0" style="fill:orange; stroke:rgb(0,0,0);" rx="1"/>
<text x="502" y="137" style="font-family:sans-serif;font-size:10px;">
parameter:1
</text>
<rect x="1451.75" y="128.0" width="7.0" height="15.0" style="fill:orange; stroke:rgb(0,0,0);" rx="1"/>
<text x="1453" y="137" style="font-family:sans-serif;font-size:10px;">
,
</text>
<rect x="966.0" y="128.0" width="11.0" height="15.0" style="fill:orange; stroke:rgb(0,0,0);" rx="1"/>
<text x="968" y="137" style="font-family:sans-serif;font-size:10px;">
+
</text>
<rect x="775.0" y="128.0" width="104.0" height="15.0" style="fill:orange; stroke:rgb(0,0,0);" rx="1"/>
<text x="777" y="137" style="font-family:sans-serif;font-size:10px;">
variable_data_type:1
</text>
<rect x="1351.25" y="160.0" width="10.0" height="15.0" style="fill:orange; stroke:rgb(0,0,0);" rx="1"/>
<text x="1353" y="169" style="font-family:sans-serif;font-size:10px;">
d
</text>
<rect x="1015.0" y="192.0" width="10.0" height="15.0" style="fill:orange; stroke:rgb(0,0,0);" rx="1"/>
<text x="1017" y="201" style="font-family:sans-serif;font-size:10px;">
b
</text>
<rect x="182.5" y="128.0" width="50.0" height="15.0" style="fill:orange; stroke:rgb(0,0,0);" rx="1"/>
<text x="184" y="137" style="font-family:sans-serif;font-size:10px;">
number:2
</text>
</svg>